#!OML:ASF H:\Terrain\Patient Classification 1\Walking\liu\liu.ASF
:FULLY-SPECIFIED
:DEGREES
227
root 9.558724 17.820551 -5.792985 11.424490 -4.532000 -8.830019
lowerback -10.375002 3.377132 5.123206
upperback -1.664146 3.794307 4.276591
thorax 4.115672 1.923009 2.052347
lowerneck -17.875441 -6.609823 -15.337080
upperneck 17.104559 -8.522316 16.424431
head 9.554953 -3.417062 7.098872
rclavicle 0.000000 0.000000
rhumerus -45.094173 15.084080 -95.609802
rradius 56.599731
rwrist -27.626829
rhand -35.024769 -33.107029
rfingers 7.837522
rthumb -5.604456 -66.017715
lclavicle 0.000000 0.000000
lhumerus -57.173161 -9.012311 103.876297
lradius 26.335871
lwrist 4.415565
lhand -7.284156 -26.045141
lfingers 7.837522
lthumb 21.157841 5.930540
rfemur 19.245489 8.122059 34.677280
rtibia 0.000000
rfoot -11.700150 8.515738
rtoes -13.690160
lfemur -52.903072 6.065928 -13.667500
ltibia 31.261560
lfoot -7.143004 13.992770
ltoes -15.635840
228
root 9.582386 17.798441 -5.599913 11.595429 -4.682667 -8.669848
lowerback -10.421412 3.342394 4.865828
upperback -1.683341 3.777609 4.140059
thorax 4.114682 1.912229 2.052545
lowerneck -18.230520 -6.586481 -15.152610
upperneck 17.107639 -8.495564 16.439831
head 9.609611 -3.377638 7.073781
rclavicle 0.000000 0.000000
rhumerus -45.170948 14.818320 -95.887985
rradius 56.169300
rwrist -27.311680
rhand -35.378311 -33.931480
rfingers 7.837522
rthumb -5.945731 -66.833580
lclavicle 0.000000 0.000000
lhumerus -56.848000 -8.532348 103.017746
lradius 26.092770
lwrist 3.201704
lhand -8.565579 -26.287031
lfingers 7.837522
lthumb 19.925289 5.807153
rfemur 19.813089 8.077696 34.360920
rtibia -0.000000
rfoot -11.429770 8.552984
rtoes -15.234230
lfemur -53.618950 7.328046 -14.696550
ltibia 32.642281
lfoot -4.287580 13.009589
ltoes -14.226191
229
root 9.606443 17.750149 -5.427884 11.657470 -4.699453 -8.430851
lowerback -10.063471 3.207567 4.452635
upperback -1.853104 3.679038 4.046064
thorax 3.720706 1.856349 2.143075
lowerneck -18.073000 -6.513144 -15.140070
upperneck 17.007210 -8.431324 16.567209
head 9.542533 -3.342295 7.125591
rclavicle 0.000000 -0.000000
rhumerus -45.474220 14.617790 -96.163101
rradius 55.900352
rwrist -27.129520
rhand -35.282719 -35.194939
rfingers 7.837522
rthumb -5.853441 -68.099457
lclavicle 0.000000 -0.000000
lhumerus -56.883087 -8.308619 102.580727
lradius 25.859240
lwrist 2.569314
lhand -9.723858 -26.533541
lfingers 7.837522
lthumb 18.810659 5.660611
rfemur 20.429201 7.869334 34.004520
rtibia -0.000000
rfoot -10.471869 8.579604
rtoes -14.862210
lfemur -54.346050 8.171735 -15.561370
ltibia 34.216049
lfoot -2.268354 12.243330
ltoes -15.245230
230
root 9.633591 17.735519 -5.244701 11.777370 -4.680423 -8.149372
lowerback -9.908371 3.130688 4.058065
upperback -2.028587 3.638437 3.946899
thorax 3.435817 1.831060 2.238324
lowerneck -18.100941 -6.535199 -15.140731
upperneck 17.142509 -8.472893 16.560829
head 9.599326 -3.360445 7.121356
rclavicle -0.000000 -0.000000
rhumerus -46.191311 14.381400 -96.284546
rradius 56.101757
rwrist -27.212681
rhand -34.744930 -35.593910
rfingers 7.837522
rthumb -5.334230 -68.510864
lclavicle -0.000000 -0.000000
lhumerus -57.000019 -8.526738 102.612732
lradius 25.638470
lwrist 2.566498
lhand -9.375091 -25.863531
lfingers 7.837522
lthumb 19.146271 6.301229
rfemur 20.893620 7.643317 33.526237
rtibia 0.000000
rfoot -9.509720 8.538034
rtoes -12.351240
lfemur -54.816410 8.440784 -16.107960
ltibia 35.742409
lfoot -0.883202 11.957220
ltoes -14.512300
231
root 9.662389 17.726721 -5.037956 11.812241 -4.672712 -8.026833
lowerback -10.074977 3.035571 3.917661
upperback -1.933118 3.513587 3.846227
thorax 3.626601 1.769229 2.209933
lowerneck -18.497490 -6.543229 -14.955050
upperneck 17.248440 -8.484091 16.508471
head 9.699019 -3.342416 7.068798
rclavicle 0.000000 0.000000
rhumerus -46.460258 14.093420 -96.475166
rradius 55.964481
rwrist -27.057690
rhand -34.461571 -37.066040
rfingers 7.837522
rthumb -5.060605 -69.989037
lclavicle 0.000000 0.000000
lhumerus -56.606770 -8.371759 102.270187
lradius 25.196709
lwrist 2.348489
lhand -11.479489 -27.750139
lfingers 7.837522
lthumb 17.120180 4.583018
rfemur 21.537121 7.444976 33.195141
rtibia -0.000000
rfoot -8.818370 8.483959
rtoes -12.291730
lfemur -55.015617 8.793510 -16.536409
ltibia 37.167240
lfoot 0.195483 11.211090
ltoes -13.883981
232
root 9.694025 17.711761 -4.831002 11.861850 -4.622200 -7.690364
lowerback -10.317823 2.863597 3.618846
upperback -1.870957 3.303157 3.670139
thorax 3.821763 1.663244 2.182939
lowerneck -18.884911 -6.536090 -14.901040
upperneck 17.395290 -8.471551 16.573481
head 9.818214 -3.310571 7.087113
rclavicle -0.000000 0.000000
rhumerus -46.686752 13.876500 -96.726624
rradius 55.554951
rwrist -26.767620
rhand -33.961510 -38.461941
rfingers 7.837522
rthumb -4.577760 -71.394951
lclavicle -0.000000 0.000000
lhumerus -56.166771 -7.973977 101.669365
lradius 24.646051
lwrist 1.689787
lhand -8.846519 -26.801500
lfingers 7.837522
lthumb 19.654909 5.317587
rfemur 22.165991 7.175322 32.647781
rtibia -0.000000
rfoot -7.786845 8.385553
rtoes -12.621950
lfemur -55.397980 9.268744 -17.359430
ltibia 38.724182
lfoot 0.927871 10.012431
ltoes -12.078879
233
root 9.725518 17.698339 -4.642737 12.014421 -4.405060 -7.305463
lowerback -10.231573 2.737086 3.304939
upperback -2.159135 3.190220 3.499309
thorax 3.468443 1.603030 2.151919
lowerneck -18.727940 -6.580750 -15.030180
upperneck 17.431921 -8.517146 16.540039
head 9.812792 -3.349412 7.092591
rclavicle -0.000000 0.000000
rhumerus -47.691273 13.615250 -96.864464
rradius 55.553188
rwrist -26.805349
rhand -33.170609 -38.958366
rfingers 7.837522
rthumb -3.813997 -71.905022
lclavicle -0.000000 0.000000
lhumerus -56.280621 -8.055574 101.385124
lradius 24.438919
lwrist 1.271490
lhand -7.188984 -26.495480
lfingers 7.837522
lthumb 21.249361 5.471125
rfemur 22.561441 6.750502 32.074680
rtibia 0.000000
rfoot -6.520096 8.147634
rtoes -15.177580
lfemur -55.897381 9.269732 -18.047699
ltibia 40.121510
lfoot 1.329328 9.133266
ltoes -9.479954
234
root 9.786591 17.695150 -4.369508 11.875270 -4.672723 -6.881589
lowerback -10.763445 2.769239 3.232801
upperback -2.134759 3.215740 3.334221
thorax 3.793240 1.615790 2.051676
lowerneck -18.447771 -6.595402 -15.167240
upperneck 17.276600 -8.509281 16.490540
head 9.711151 -3.371434 7.096320
rclavicle 0.000000 0.000000
rhumerus -48.419472 13.070531 -96.757431
rradius 55.138821
rwrist -26.442461
rhand -32.338570 -39.383629
rfingers 7.837522
rthumb -3.010392 -72.342056
lclavicle 0.000000 0.000000
lhumerus -56.375000 -7.721934 101.027519
lradius 24.260830
lwrist 0.514034
lhand -7.415375 -26.609440
lfingers 7.837522
lthumb 21.031670 5.378846
rfemur 23.615238 6.789849 31.215361
rtibia -0.000000
rfoot -5.730780 8.087827
rtoes -17.244261
lfemur -55.532730 9.483287 -18.883369
ltibia 41.598152
lfoot 0.375938 8.453732
ltoes -8.272374
235
root 9.804531 17.699440 -4.211119 11.842930 -4.459653 -6.976024
lowerback -10.058599 2.587475 2.992330
upperback -2.408087 3.041082 3.494931
thorax 3.101142 1.525480 2.287505
lowerneck -18.547979 -6.543878 -15.359850
upperneck 17.381870 -8.446108 16.772251
head 9.776107 -3.323001 7.245227
rclavicle 0.000000 0.000000
rhumerus -48.845612 12.593680 -96.688019
rradius 54.407761
rwrist -25.904560
rhand -31.836531 -35.395580
rfingers 7.837522
rthumb -2.525545 -68.359718
lclavicle 0.000000 0.000000
lhumerus -56.198784 -7.160956 100.630966
lradius 23.753841
lwrist -0.542969
lhand -7.817513 -26.643980
lfingers 7.837522
lthumb 20.644911 5.382036
rfemur 24.012451 6.397160 31.259140
rtibia -0.000000
rfoot -4.387713 7.685733
rtoes -18.914280
lfemur -55.784412 9.673257 -19.016581
ltibia 42.917931
lfoot -0.121277 7.834079
ltoes -7.362707
236
root 9.840215 17.707029 -4.014747 11.806741 -4.357331 -6.709868
lowerback -9.919822 2.505349 2.740353
upperback -2.454342 2.966865 3.422199
thorax 2.969538 1.487277 2.336268
lowerneck -19.047380 -6.598581 -15.606250
upperneck 17.592300 -8.490559 17.109400
head 9.972975 -3.306006 7.410414
rclavicle -0.000000 -0.000000
rhumerus -49.188148 12.520860 -96.775032
rradius 53.857212
rwrist -26.143480
rhand -31.712559 -28.716820
rfingers 7.837522
rthumb -2.405854 -61.682278
lclavicle -0.000000 -0.000000
lhumerus -55.702682 -6.942419 100.371918
lradius 23.226940
lwrist -1.198648
lhand -7.477129 -26.376680
lfingers 7.837522
lthumb 20.972271 5.617425
rfemur 24.530439 6.083990 30.776899
rtibia 0.000000
rfoot -2.720091 7.247669
rtoes -19.031981
lfemur -55.790901 9.994665 -19.748960
ltibia 44.275772
lfoot -0.784659 7.191536
ltoes -5.913611
